<svg width="184" height="184" viewBox="0 0 184 184" fill="none" xmlns="http://www.w3.org/2000/svg">
<path fill-rule="evenodd" clip-rule="evenodd" d="M8.01447 163.438C10.5087 165.863 16.245 169.83 24.9779 173.736C39.5681 180.264 57.5622 184.119 79.1038 183.997C102.647 183.864 126.211 175.396 144.179 160.54C162.488 145.401 177.058 122.137 180.526 104.887C184.233 86.45 182.122 70.5427 176.137 55.5493C174.963 52.6092 174.015 50.536 172.185 46.7372C171.597 45.5175 172.946 37.4722 174.504 33.8643C174.709 33.4737 177.669 30.2186 178.328 29.4559C182.009 25.1907 184 20.7351 184 14.6603C184 2.15601 165.725 -4.38353 160.673 3.29614C159.497 5.08365 159.377 6.58757 159.207 13.9598C158.831 30.2856 158.093 38.8179 155.173 49.6317C153.82 54.6388 152.089 59.2754 149.934 63.5171C137.883 87.232 114.495 110.852 93.8112 123.837C85.4948 129.058 74.2476 132.91 60.821 135.511C43.8995 138.79 26.2135 139.729 11.7418 139.396C-1.30374 137.288 -4.78495 154.45 8.01447 163.438Z" fill="#FFC700"/>
</svg>
