<svg width="64" height="64" viewBox="0 0 64 64" fill="none" xmlns="http://www.w3.org/2000/svg">
<path fill-rule="evenodd" clip-rule="evenodd" d="M2.78764 56.8481C3.6552 57.6916 5.65042 59.0712 8.68797 60.4301C13.7628 62.7004 20.0216 64.0415 27.5144 63.999C35.7032 63.9526 43.8996 61.0075 50.1493 55.8399C56.5175 50.5743 61.5854 42.4824 62.7918 36.4823C64.0811 30.0696 63.3467 24.5366 61.265 19.3215C60.8567 18.2989 60.527 17.5777 59.8905 16.2564C59.6861 15.8322 60.1552 13.0338 60.6971 11.7789C60.7682 11.643 61.798 10.5108 62.027 10.2455C63.3073 8.76199 64 7.21222 64 5.09923C64 0.749917 57.6435 -1.5247 55.8861 1.14648C55.4771 1.76823 55.4356 2.29133 55.3765 4.85559C55.2455 10.5341 54.9889 13.5019 53.9731 17.2632C53.5027 19.0048 52.9005 20.6175 52.1508 22.0929C47.9593 30.3416 39.8245 38.5572 32.63 43.0737C29.7373 44.8897 25.8253 46.2294 21.1551 47.1343C15.2694 48.2747 9.11773 48.6015 4.0841 48.4857C-0.453474 47.7524 -1.66433 53.7217 2.78764 56.8481Z" fill="#FFC700"/>
</svg>
