<svg width="112" height="112" viewBox="0 0 112 112" fill="none" xmlns="http://www.w3.org/2000/svg">
<path fill-rule="evenodd" clip-rule="evenodd" d="M4.87838 99.4841C6.39659 100.96 9.88823 103.375 15.2039 105.753C24.0849 109.726 35.0379 112.073 48.1501 111.998C62.4806 111.917 76.8243 106.763 87.7612 97.7199C98.9057 88.5051 107.774 74.3441 109.886 63.8441C112.142 52.6217 110.857 42.939 107.214 33.8126C106.499 32.023 105.922 30.761 104.808 28.4487C104.451 27.7063 105.272 22.8092 106.22 20.6131C106.344 20.3753 108.147 18.3939 108.547 17.9297C110.788 15.3335 112 12.6214 112 8.92366C112 1.31236 100.876 -2.66823 97.8007 2.00635C97.0849 3.0944 97.0123 4.00982 96.9088 8.49727C96.6796 18.4347 96.2307 23.6283 94.4529 30.2106C93.6297 33.2584 92.5759 36.0807 91.2639 38.6626C83.9288 53.0977 69.6929 67.475 57.1025 75.379C52.0403 78.5569 45.1942 80.9015 37.0215 82.485C26.7214 84.4808 15.956 85.0526 7.14717 84.85C-0.79358 83.5667 -2.91258 94.013 4.87838 99.4841Z" fill="#FFC700"/>
</svg>
